<svg height="20pt" viewBox="0 0 512.003 512" width="20pt" xmlns="http://www.w3.org/2000/svg"><path d="m427.25 292.824219c0 115.21875-93.398438 208.621093-208.628906 208.621093-115.222656 0-208.621094-93.402343-208.621094-208.621093 0-115.222657 93.398438-208.628907 208.621094-208.628907 16.597656 0 32.738281 1.9375 48.207031 5.597657 2.832031.671875 5.640625 1.402343 8.421875 2.179687 14.410156 4.117188 28.554688 9.597656 41.710938 16.8125.617187.328125 1.238281.667969 1.859374 1v108.207032l41.167969-45.867188h28.820313c.953125 1.339844 1.890625 2.6875 2.8125 4.046875 8.324218 12.328125 15.296875 25.535156 20.828125 39.339844 5.621093 14.023437 9.710937 28.714843 12.09375 43.636719 1.300781 8.132812 2.230469 16.367187 2.507812 24.605468.027344.660156.058594 1.328125.078125 1.988282.03125.839843.050782 1.691406.070313 2.53125.03125 1.511718.050781 3.03125.050781 4.550781zm0 0" fill="#bdd9ff"/><g fill="#78d0a9"><path d="m212.699219 380.292969v37.308593c0 5.640626-2.199219 11.0625-6.121094 15.121094l-55.679687 57.480469c-48.019532-16.46875-88.117188-49.960937-113.109376-93.28125v-71.300781c0-5.757813 2.289063-11.277344 6.359376-15.359375 4.25-4.238281 6.371093-9.800781 6.371093-15.359375s-2.121093-11.121094-6.371093-15.359375l-28.949219-28.949219c-.257813-.261719-.507813-.53125-.757813-.800781 13.796875-65.808594 58.617188-120.21875 118.457032-147.230469h34.582031c5.757812 0 11.28125 2.289062 15.359375 6.359375l18.988281 18.992187c4.070313 4.078126 6.363281 9.609376 6.363281 15.367188v25.160156c0 5.492188-2.082031 10.78125-5.820312 14.800782l-26.730469 28.71875c-4.109375 4.410156-9.871094 6.921874-15.902344 6.921874h-66.667969c-12 0-21.71875 9.730469-21.71875 21.730469v4.988281c0 6.582032 2.96875 12.800782 8.089844 16.921876l55.328125 44.570312c5.121094 4.128906 8.101563 10.347656 8.101563 16.917969v12.820312c0 12 9.71875 21.730469 21.71875 21.730469h26.378906c12 0 21.730469 9.730469 21.730469 21.730469zm0 0"/><path d="m407.910156 380.640625c-14.199218 30.582031-35.601562 57.140625-62.019531 77.5l-15.832031-15.816406c-3.078125-3.089844-5.5-6.730469-7.136719-10.691407-1.640625-3.960937-2.511719-8.230468-2.511719-12.609374 0-8.742188 3.480469-17.121094 9.648438-23.289063l6.171875-6.171875c6.179687-6.171875 14.558593-9.648438 23.300781-9.648438h41.449219c2.378906 0 4.699219.25 6.929687.726563zm0 0"/><path d="m427.199219 288.273438c-.480469.03125-.960938.039062-1.449219.039062h-88.140625c-6.917969 0-13.550781-2.738281-18.429687-7.628906l-29.480469-29.46875c-4.890625-4.890625-7.628907-11.519532-7.628907-18.441406v-21.46875c0-6.921876-2.75-13.550782-7.640624-18.429688-2.449219-2.453125-4.351563-5.332031-5.648438-8.460938-1.300781-3.128906-1.980469-6.519531-1.980469-9.980468v-83.261719c0-.457031.007813-.917969.027344-1.378906 2.832031.671875 5.640625 1.402343 8.421875 2.179687 14.410156 4.117188 28.554688 9.597656 41.710938 16.8125.617187.328125 1.238281.667969 1.859374 1v108.207032l41.167969-45.867188h28.820313c.953125 1.339844 1.890625 2.6875 2.8125 4.046875 8.324218 12.328125 15.296875 25.539063 20.828125 39.339844 5.621093 14.023437 9.710937 28.714843 12.09375 43.636719 1.300781 8.132812 2.230469 16.367187 2.507812 24.605468.027344.660156.058594 1.328125.078125 1.988282.03125.839843.050782 1.691406.070313 2.53125zm0 0"/></g><path d="m359.996094 172.125-41.175782 45.863281v-183.402343c0-13.578126 11.003907-24.582032 24.582032-24.582032h134.011718c13.578126 0 24.585938 11.003906 24.585938 24.582032v112.957031c0 13.578125-11.007812 24.582031-24.585938 24.582031zm0 0" fill="#ffc15a"/><path d="m410.410156 37.085938-56.359375 35.671874v16.105469h112.71875v-16.105469zm0 0" fill="#eff3f3"/><path d="m478.277344.0195312c-.378906-.0078124-.746094.0039063-1.113282.0351563l-78.53125-.0351563c-.199218-.0117187-.398437-.0195312-.597656-.0195312h-54.632812c-19.070313 0-34.585938 15.515625-34.585938 34.585938v59c-7.144531-3.230469-14.699218-6.140626-22.621094-8.707032-.089843-.03125-.179687-.0625-.269531-.089844-2.625-.847656-5.273437-1.671874-7.972656-2.445312-2.949219-.828125-5.917969-1.59375-8.820313-2.28125-.347656-.082031-.695312-.140625-1.046874-.1875-16.160157-3.742188-32.765626-5.679688-49.460938-5.679688-58.398438 0-113.300781 22.742188-154.589844 64.035157-41.292968 41.292969-64.035156 96.191406-64.035156 154.589843 0 50.351563 16.921875 98.09375 48.046875 136.765626 9.707031 12.105468 20.703125 23.175781 32.738281 32.964843 3.414063 2.773438 6.914063 5.453125 10.488282 8.019531 36.882812 26.542969 81.011718 40.875 127.351562 40.875.953125 0 1.90625-.015624 2.855469-.03125l.710937-.011718c5.519532-.09375 9.921875-4.640625 9.832032-10.164063-.089844-5.464843-4.546876-9.835937-9.996094-9.835937-.054688 0-.109375 0-.164063 0l-.734375.015625c-.832031.011719-1.667968.027343-2.503906.027343-16.925781 0-33.363281-2.132812-49.0625-6.136718l44.210938-45.640625c5.757812-5.960938 8.925781-13.796875 8.925781-22.0625v-37.3125c0-17.496094-14.234375-31.726563-31.730469-31.726563h-26.378906c-6.460938 0-11.71875-5.265625-11.71875-11.730468v-12.820313c0-9.640625-4.3125-18.644531-11.828125-24.707031l-55.332031-44.574219c-2.773438-2.230469-4.359376-5.558594-4.359376-9.128906v-4.988281c0-6.46875 5.257813-11.730469 11.71875-11.730469h66.671876c8.769531 0 17.230468-3.683594 23.21875-10.105469l26.730468-28.722656c5.480469-5.890625 8.5-13.566406 8.5-21.613282v-25.160156c0-8.464844-3.296875-16.433594-9.289062-22.441406l-19-18.996094c-1.792969-1.789062-3.765625-3.335937-5.871094-4.625 11.238281-1.984375 22.796875-3.023437 34.59375-3.023437 12.847656 0 25.640625 1.261719 38.175781 3.710937v76.527344c0 4.78125.921875 9.429688 2.746094 13.8125 1.824219 4.40625 4.457031 8.339844 7.820313 11.707031 3.03125 3.027344 4.703124 7.058594 4.703124 11.351563v21.46875c0 9.640625 3.75 18.699218 10.558594 25.511718l29.472656 29.464844c6.800782 6.8125 15.859376 10.5625 25.507813 10.5625h79.558594c-.675781 24.851563-5.925781 49.058594-15.441407 71.617188-.25-.003906-.496093-.019532-.746093-.019532h-41.449219c-11.460938 0-22.246094 4.46875-30.371094 12.582032l-6.167968 6.167968c-7.996094 7.992188-12.582032 19.058594-12.582032 30.363282 0 5.664062 1.101563 11.191406 3.273438 16.433594 2.160156 5.21875 5.289062 9.90625 9.308594 13.9375l7.554687 7.550781c-11.433594 7.796875-23.703125 14.425781-36.667969 19.734375-5.109375 2.097656-7.558594 7.9375-5.460937 13.046875 1.585937 3.867187 5.316406 6.210937 9.257812 6.210937 1.261719 0 2.546875-.242187 3.785157-.75 39.675781-16.257812 73.480468-43.621094 97.765624-79.132812 24.875-36.382813 38.027344-78.996094 38.027344-123.234375 0-3.207031-.078125-6.410157-.214844-9.617188-.175781-5.027343-.585937-10.230469-1.234374-15.71875-.832032-7.257812-2.03125-14.441406-3.578126-21.53125-.441406-2.023437-.910156-4.035156-1.410156-6.042969-5.023437-20.246093-12.949218-39.664062-23.621094-57.785156h70.222657c19.070312 0 34.585937-15.515625 34.585937-34.585937v-112.957031c-.003906-18.914063-14.816406-34.097657-33.726562-34.5664068zm-457.046875 270.7460938 15.859375 15.855469c2.210937 2.207031 3.429687 5.148437 3.429687 8.28125 0 3.132812-1.21875 6.074218-3.449219 8.296875-5.984374 6-9.28125 13.964843-9.28125 22.421875v22.328125c-5.066406-17.511719-7.789062-36.007813-7.789062-55.128907 0-7.453124.425781-14.8125 1.230469-22.054687zm146.25-158.203125c3.125 0 6.074219 1.222656 8.289062 3.429688l18.980469 18.980468c2.183594 2.191406 3.4375 5.222656 3.4375 8.308594v25.160156c0 2.976563-1.113281 5.8125-3.140625 7.988282l-26.726563 28.714843c-2.210937 2.375-5.339843 3.738281-8.582031 3.738281h-66.667969c-17.492187 0-31.722656 14.234376-31.722656 31.730469v4.988281c0 9.65625 4.308594 18.664063 11.816406 24.707032l55.324219 44.566406c2.785157 2.246094 4.378907 5.574219 4.378907 9.136719v12.820312c0 17.496094 14.230468 31.726563 31.722656 31.726563h26.378906c6.46875 0 11.730469 5.265625 11.730469 11.730468v37.3125c0 3.058594-1.175781 5.960938-3.304688 8.160157l-51.136719 52.792969c-42.246093-16.058594-77.636718-46.132813-100.46875-84.519532v-68.414062c0-3.125 1.222657-6.074219 3.425782-8.28125 6-5.984375 9.304687-13.953125 9.304687-22.4375s-3.304687-16.453125-9.296875-22.433594l-25.796875-25.792969c14.230469-59.585937 55.382813-108.828125 109.835938-134.113281zm158.769531 161.050781-29.480469-29.46875c-3.03125-3.03125-4.699219-7.070312-4.699219-11.371093v-21.46875c0-9.644532-3.757812-18.703126-10.566406-25.5-1.496094-1.496094-2.667968-3.253907-3.488281-5.226563-.804687-1.941406-1.214844-4.011719-1.214844-6.144531v-71.527344c11.023438 3.367188 21.75 7.667969 32.019531 12.90625v102.175781c0 1.554688.359376 3.046875 1.011719 4.386719 1.089844 2.230469 2.992188 4.03125 5.414063 4.957031 3.816406 1.457031 8.285156.382813 11.019531-2.660156l20.527344-22.871094 17.664062-19.675781h19.105469c.160156.234375.316406.472656.472656.710938 13.410156 20.132812 23.097656 42.703124 28.40625 66.308593 1.503906 6.695313 2.628906 13.476563 3.449219 20.289063.34375 2.945312.621094 5.90625.835937 8.878906h-79.117187c-4.296875 0-8.332031-1.664062-11.359375-4.699219zm10.882812 129.191407 6.164063-6.164063c4.28125-4.277344 10.199219-6.730469 16.234375-6.730469h32.402344c-.722656 1.285156-1.457032 2.558594-2.207032 3.828125-.015624.023438-.03125.050781-.046874.078125-11.367188 19.191406-25.980469 36.476563-43.074219 50.902344l-9.464844-9.457031c-2.148437-2.160157-3.828125-4.667969-4.980469-7.457031-1.160156-2.800782-1.75-5.757813-1.75-8.78125 0-6.035157 2.449219-11.949219 6.722656-16.21875zm154.867188-255.265626c0 8.042969-6.542969 14.585938-14.585938 14.585938h-88.585937c-.007813 0-.011719 0-.015625 0h-28.820312c-2.839844 0-5.546876 1.207031-7.441407 3.320312l-20.046875 22.332032-3.683594 4.101562v-82.003906c0-.027344 0-.054688 0-.085938v-.003906c0-.003906 0-.007812 0-.011718 0-.011719 0-.019532 0-.027344v-75.160156c0-8.042969 6.542969-14.585938 14.585938-14.585938h54.027344c.195312.011719.394531.019531.59375.019531l80 .035157h.003906c.140625 0 .277344-.003907.417969-.007813 7.53125.53125 13.550781 6.917969 13.550781 14.539063zm0 0"/><path d="m472.117188 64.308594-56.359376-35.671875c-3.265624-2.066407-7.429687-2.066407-10.695312 0l-56.363281 35.671875c-2.894531 1.832031-4.648438 5.023437-4.648438 8.449218v16.105469c0 5.519531 4.476563 10 10 10h14.28125v32.753907h-7.28125c-5.523437 0-10 4.476562-10 10 0 5.519531 4.476563 10 10 10h98.71875c5.523438 0 10-4.480469 10-10 0-5.523438-4.476562-10-10-10h-7.285156v-32.753907h14.285156c5.523438 0 10-4.480469 10-10v-16.105469c0-3.425781-1.753906-6.617187-4.652343-8.449218zm-83.785157 34.554687h12.078125v32.753907h-12.078125zm44.152344 32.753907h-12.074219v-32.753907h12.074219zm24.285156-52.753907h-92.71875v-.601562l46.359375-29.339844 46.359375 29.34375zm0 0"/><path d="m269.300781 493.503906c-1.613281-3.933594-5.714843-6.453125-9.949219-6.148437-4.210937.304687-7.839843 3.308593-8.941406 7.382812-1.074218 3.976563.488282 8.3125 3.832032 10.714844 3.4375 2.46875 8.203124 2.464844 11.640624 0 3.71875-2.667969 5.183594-7.710937 3.417969-11.949219zm0 0"/></svg>