<svg height="50pt" viewBox="0 -1 439.6 439" width="50pt" xmlns="http://www.w3.org/2000/svg"><path d="m219.898438 330c115.902343 0 209.800781 22 209.800781 49.101562 0 27.097657-93.898438 49-209.800781 49-115.898438 0-209.796876-22-209.796876-49s93.898438-49.101562 209.796876-49.101562zm74.800781 49c0-9.699219-33.5-17.5-74.800781-17.5-41.296876 0-74.796876 7.800781-74.796876 17.5 0 9.601562 33.5 17.5 74.796876 17.5 41.300781 0 74.800781-7.800781 74.800781-17.5zm0 0" fill="#00efd1"/><path d="m299.699219 44.898438c21.230469 22.492187 33.007812 52.277343 32.902343 83.203124.15625 30.84375-11.632812 60.554688-32.902343 82.898438l-79.800781 83.398438-79.796876-83.296876c-43.902343-46.101562-43.902343-120.5 0-166.203124 20.703126-22.023438 49.570313-34.539063 79.796876-34.597657 29 0 57.800781 11.597657 79.800781 34.597657zm-32.398438 67.402343c0-26.179687-21.222656-47.402343-47.402343-47.402343-26.175782 0-47.398438 21.222656-47.398438 47.402343 0 26.175781 21.222656 47.398438 47.398438 47.398438 12.574218.007812 24.636718-4.984375 33.527343-13.875s13.882813-20.949219 13.875-33.523438zm0 0" fill="#00acea"/><g fill="#083863"><path d="m212.699219 301.300781c1.871093 1.976563 4.476562 3.097657 7.199219 3.097657 2.726562 0 5.328124-1.121094 7.203124-3.097657l79.699219-83.300781c23-23.898438 35.699219-55.800781 35.699219-89.898438.179688-33.519531-12.613281-65.804687-35.699219-90.101562-23.101562-24.300781-54-37.699219-87-37.699219s-63.902343 13.398438-87 37.597657c-47.5 49.402343-47.5 130.101562 0 180zm-65.300781-249.5c19.300781-20.300781 45.101562-31.5 72.5-31.5 27.402343 0 53.203124 11.199219 72.5 31.5 19.507812 20.632813 30.289062 48.003907 30.101562 76.398438 0 28.800781-10.699219 55.800781-30.101562 76l-72.5 75.699219-72.5-75.699219c-40.199219-42.199219-40.199219-110.597657 0-152.398438zm0 0"/><path d="m219.898438 169.601562c31.703124 0 57.402343-25.699218 57.402343-57.402343 0-31.699219-25.699219-57.398438-57.402343-57.398438-31.699219 0-57.398438 25.699219-57.398438 57.398438.035156 31.6875 25.714844 57.363281 57.398438 57.402343zm0-94.703124c20.65625 0 37.402343 16.746093 37.402343 37.402343s-16.746093 37.398438-37.402343 37.398438c-20.652344 0-37.398438-16.742188-37.398438-37.398438.039062-20.640625 16.761719-37.363281 37.398438-37.402343zm0 0"/><path d="m275.101562 356.898438c-14.800781-3.5-34.402343-5.398438-55.203124-5.398438-20.796876 0-40.296876 1.898438-55.199219 5.398438-7.300781 1.703124-29.597657 6.902343-29.597657 22.101562s22.296876 20.398438 29.597657 22.101562c14.902343 3.5 34.402343 5.398438 55.199219 5.398438 20.800781 0 40.300781-1.898438 55.203124-5.398438 7.296876-1.703124 29.597657-6.902343 29.597657-22.101562s-22.300781-20.398438-29.597657-22.101562zm-55.203124 29.601562c-29.398438 0-50-4-59.796876-7.5 9.699219-3.5 30-7.5 59.796876-7.5 29.800781 0 50.101562 3.898438 59.800781 7.5-9.800781 3.5-30.398438 7.5-59.800781 7.5zm0 0"/><path d="m370.601562 334.601562c-40.402343-9.402343-93.902343-14.601562-150.703124-14.601562-56.796876 0-110.296876 5.199219-150.699219 14.601562-45.898438 10.699219-69.199219 25.699219-69.199219 44.398438s23.300781 33.699219 69.199219 44.398438c40.402343 9.402343 93.902343 14.601562 150.601562 14.601562s110.300781-5.199219 150.597657-14.601562c45.902343-10.699219 69.203124-25.699219 69.203124-44.398438s-23.101562-33.699219-69-44.398438zm-4.601562 69.398438c-38.898438 9.101562-90.800781 14.101562-146.101562 14.101562-55.296876 0-107.199219-5-146.097657-14.101562-43.902343-10.300781-53.699219-21.800781-53.699219-25s9.898438-14.699219 53.699219-25c38.898438-9.101562 90.800781-14.101562 146.097657-14.101562 55.300781 0 107.203124 5 146.101562 14.101562 43.898438 10.300781 53.699219 21.699219 53.699219 25s-9.800781 14.699219-53.699219 25zm0 0"/></g></svg>