<svg enable-background="new 0 0 32 32" height="512" viewBox="0 0 32 32" width="512" xmlns="http://www.w3.org/2000/svg"><path d="m26 32h-20c-3.314 0-6-2.686-6-6v-20c0-3.314 2.686-6 6-6h20c3.314 0 6 2.686 6 6v20c0 3.314-2.686 6-6 6z" fill="#e3f8fa"/><path d="m23.974 18.197c-.06-.178-.214-.307-.399-.335l-2.616-.4-1.174-2.502c-.165-.351-.74-.351-.905 0l-1.174 2.502-2.616.4c-.185.028-.339.158-.399.335-.059.178-.014.374.117.508l1.907 1.955-.451 2.766c-.031.189.049.379.205.489.157.111.362.122.53.029l2.333-1.29 2.333 1.29c.076.042.159.062.242.062.101 0 .202-.031.288-.091.157-.11.236-.3.205-.489l-.451-2.766 1.907-1.955c.133-.134.178-.33.118-.508z" fill="#8ce1eb"/><path d="m15.242 17.339c.101 0 .202-.031.288-.091.157-.11.236-.3.205-.489l-.451-2.766 1.907-1.955c.131-.134.176-.33.117-.508-.06-.178-.214-.307-.399-.335l-2.616-.4-1.174-2.502c-.165-.351-.74-.351-.905 0l-1.174 2.502-2.616.4c-.185.028-.339.158-.399.335-.059.178-.014.374.117.508l1.907 1.955-.451 2.766c-.031.189.049.379.205.489s.362.121.53.029l2.333-1.29 2.334 1.29c.076.042.159.062.242.062z" fill="#26c6da"/></svg>